<?xml version="1.0" encoding="utf-8"?><svg xmlns="http://www.w3.org/2000/svg" xmlns:xlink="http://www.w3.org/1999/xlink"><symbol viewBox="0 0 18 18" id="icon" xmlns="http://www.w3.org/2000/svg"><path d="M9.441 17.654h-.166a57.97 57.97 0 01-3.687-.102c-1.077-.066-2.059-.438-2.841-1.076-.756-.615-1.271-1.448-1.533-2.474-.228-.893-.24-1.77-.252-2.618-.008-.608-.017-1.33-.018-2.063.001-.736.01-1.457.018-2.065.012-.848.024-1.725.252-2.618.262-1.026.777-1.859 1.533-2.474.782-.639 1.764-1.01 2.84-1.076A58.068 58.068 0 019.28.987a58.42 58.42 0 013.687.101c1.076.065 2.059.437 2.841 1.076.756.615 1.271 1.448 1.533 2.474.228.893.24 1.77.252 2.618.008.608.017 1.33.018 2.062v.003c-.001.734-.01 1.455-.018 2.063-.012.848-.024 1.725-.252 2.618-.262 1.026-.777 1.859-1.533 2.474-.782.638-1.765 1.01-2.84 1.076a58.01 58.01 0 01-3.526.102zm-.166-1.303c1.286.003 2.466-.03 3.612-.099.814-.05 1.52-.313 2.098-.785.534-.436.902-1.037 1.093-1.787.19-.743.2-1.542.211-2.314.009-.604.017-1.32.02-2.046-.003-.726-.011-1.442-.02-2.046-.01-.772-.021-1.57-.21-2.314-.192-.75-.56-1.352-1.095-1.787-.578-.472-1.283-.736-2.097-.785a56.9 56.9 0 00-3.609-.1 56.741 56.741 0 00-3.611.1c-.814.05-1.52.313-2.098.785-.534.435-.902 1.037-1.093 1.787-.19.743-.201 1.541-.212 2.314-.008.604-.016 1.32-.018 2.047.002.724.01 1.44.018 2.045.011.772.022 1.57.212 2.314.191.75.559 1.351 1.093 1.787.578.471 1.284.736 2.098.785a56.61 56.61 0 003.608.1zm-.03-2.962a4.074 4.074 0 01-4.07-4.07 4.074 4.074 0 014.07-4.068 4.074 4.074 0 014.069 4.069 4.074 4.074 0 01-4.07 4.07zm0-6.836A2.77 2.77 0 006.476 9.32a2.77 2.77 0 002.767 2.767A2.77 2.77 0 0012.01 9.32a2.77 2.77 0 00-2.767-2.767zm4.524-2.604a.977.977 0 100 1.953.977.977 0 000-1.953z"/></symbol></svg>