<svg width="18" height="18" viewBox="0 0 18 18" fill="none" xmlns="http://www.w3.org/2000/svg">
<path d="M9.44129 17.6536C9.38611 17.6536 9.33092 17.6536 9.27535 17.6533C7.96889 17.6565 6.76175 17.6233 5.58779 17.5519C4.5115 17.4864 3.52905 17.1144 2.7465 16.4763C1.99141 15.8606 1.47577 15.0281 1.21395 14.0022C0.986075 13.109 0.973995 12.2322 0.962423 11.3842C0.954031 10.7757 0.945384 10.0547 0.943604 9.32147C0.945384 8.5852 0.954031 7.86419 0.962423 7.25573C0.973995 6.40781 0.986075 5.53103 1.21395 4.63772C1.47577 3.61179 1.99141 2.77926 2.7465 2.16354C3.52905 1.52545 4.5115 1.1535 5.58792 1.08801C6.76188 1.01667 7.96927 0.983357 9.27853 0.986536C10.5854 0.983738 11.7921 1.01667 12.9661 1.08801C14.0424 1.1535 15.0248 1.52545 15.8074 2.16354C16.5626 2.77926 17.0781 3.61179 17.3399 4.63772C17.5678 5.53091 17.5799 6.40781 17.5915 7.25573C17.5998 7.86419 17.6086 8.5852 17.6103 9.31841V9.32147C17.6086 10.0547 17.5998 10.7757 17.5915 11.3842C17.5799 12.2321 17.5679 13.1088 17.3399 14.0022C17.0781 15.0281 16.5626 15.8606 15.8074 16.4763C15.0248 17.1144 14.0424 17.4864 12.9661 17.5519C11.8418 17.6203 10.687 17.6536 9.44129 17.6536ZM9.27535 16.3512C10.5606 16.3543 11.7406 16.3218 12.887 16.2522C13.7008 16.2027 14.4064 15.9386 14.9845 15.4672C15.5188 15.0314 15.8869 14.4302 16.0782 13.6802C16.268 12.9367 16.2789 12.1383 16.2894 11.3664C16.2977 10.762 16.3064 10.046 16.3081 9.31994C16.3064 8.59372 16.2977 7.87793 16.2894 7.27353C16.2789 6.50153 16.268 5.70321 16.0782 4.95957C15.8869 4.20957 15.5188 3.60835 14.9845 3.17257C14.4064 2.70131 13.7008 2.43719 12.887 2.38773C11.7406 2.31792 10.5606 2.28575 9.2784 2.28854C7.99343 2.28549 6.81325 2.31792 5.66689 2.38773C4.85305 2.43719 4.14744 2.70131 3.56936 3.17257C3.03503 3.60835 2.66702 4.20957 2.47564 4.95957C2.28592 5.70321 2.27498 6.5014 2.26443 7.27353C2.25616 7.87844 2.24752 8.59474 2.24574 9.32147C2.24752 10.045 2.25616 10.7614 2.26443 11.3664C2.27498 12.1383 2.28592 12.9367 2.47564 13.6802C2.66702 14.4302 3.03503 15.0314 3.56936 15.4672C4.14744 15.9384 4.85305 16.2026 5.66689 16.252C6.81325 16.3218 7.99369 16.3544 9.27535 16.3512ZM9.24432 13.3891C7.00068 13.3891 5.17515 11.5637 5.17515 9.31994C5.17515 7.07617 7.00068 5.25077 9.24432 5.25077C11.4881 5.25077 13.3135 7.07617 13.3135 9.31994C13.3135 11.5637 11.4881 13.3891 9.24432 13.3891ZM9.24432 6.5529C7.71864 6.5529 6.47729 7.79426 6.47729 9.31994C6.47729 10.8456 7.71864 12.087 9.24432 12.087C10.7701 12.087 12.0114 10.8456 12.0114 9.31994C12.0114 7.79426 10.7701 6.5529 9.24432 6.5529ZM13.7692 3.94864C13.2299 3.94864 12.7926 4.38582 12.7926 4.92524C12.7926 5.46466 13.2299 5.90184 13.7692 5.90184C14.3087 5.90184 14.7458 5.46466 14.7458 4.92524C14.7458 4.38582 14.3087 3.94864 13.7692 3.94864Z" fill="#11253D"/>
</svg>
